<svg xmlns="http://www.w3.org/2000/svg" xmlns:xlink="http://www.w3.org/1999/xlink" width="500" zoomAndPan="magnify" viewBox="0 0 375 374.999991" height="500" preserveAspectRatio="xMidYMid meet" version="1.0"><defs><clipPath id="e386f57895"><path d="M 112.5 132.5625 L 262.5 132.5625 L 262.5 152 L 112.5 152 Z M 112.5 132.5625 " clip-rule="nonzero"/></clipPath><clipPath id="b55c1a50e4"><path d="M 112.5 177 L 262.5 177 L 262.5 198 L 112.5 198 Z M 112.5 177 " clip-rule="nonzero"/></clipPath><clipPath id="d28b1f472a"><path d="M 112.5 223 L 262.5 223 L 262.5 242.8125 L 112.5 242.8125 Z M 112.5 223 " clip-rule="nonzero"/></clipPath></defs><g clip-path="url(#e386f57895)"><path fill="#000000" d="M 122.089844 151.621094 L 252.910156 151.621094 C 258.179688 151.621094 262.457031 147.34375 262.457031 142.074219 C 262.457031 136.804688 258.144531 132.5625 252.910156 132.5625 L 122.089844 132.5625 C 116.820312 132.5625 112.542969 136.839844 112.542969 142.109375 C 112.542969 147.378906 116.820312 151.621094 122.089844 151.621094 Z M 122.089844 151.621094 " fill-opacity="1" fill-rule="nonzero"/></g><g clip-path="url(#b55c1a50e4)"><path fill="#000000" d="M 252.910156 177.96875 L 122.089844 177.96875 C 116.820312 177.96875 112.542969 182.246094 112.542969 187.484375 C 112.542969 192.71875 116.820312 197.03125 122.089844 197.03125 L 252.910156 197.03125 C 258.179688 197.03125 262.457031 192.753906 262.457031 187.484375 C 262.457031 182.214844 258.144531 177.96875 252.910156 177.96875 Z M 252.910156 177.96875 " fill-opacity="1" fill-rule="nonzero"/></g><g clip-path="url(#d28b1f472a)"><path fill="#000000" d="M 252.910156 223.378906 L 122.089844 223.378906 C 116.820312 223.378906 112.542969 227.621094 112.542969 232.890625 C 112.542969 238.160156 116.820312 242.4375 122.089844 242.4375 L 252.910156 242.4375 C 258.179688 242.4375 262.457031 238.160156 262.457031 232.890625 C 262.457031 227.621094 258.144531 223.378906 252.910156 223.378906 Z M 252.910156 223.378906 " fill-opacity="1" fill-rule="nonzero"/></g></svg>