<svg xmlns="http://www.w3.org/2000/svg" xmlns:xlink="http://www.w3.org/1999/xlink" width="500" zoomAndPan="magnify" viewBox="0 0 375 374.999991" height="500" preserveAspectRatio="xMidYMid meet" version="1.0"><defs><clipPath id="1de2b849c9"><path d="M 129.359375 112.5 L 245.609375 112.5 L 245.609375 262.5 L 129.359375 262.5 Z M 129.359375 112.5 " clip-rule="nonzero"/></clipPath></defs><g clip-path="url(#1de2b849c9)"><path fill="#000000" d="M 245.609375 251.164062 C 245.609375 211.140625 219.566406 178.714844 187.484375 178.714844 C 155.402344 178.714844 129.359375 211.140625 129.359375 251.164062 C 129.359375 257.40625 155.402344 262.496094 187.484375 262.496094 C 219.566406 262.496094 245.609375 257.40625 245.609375 251.164062 Z M 187.484375 112.503906 C 204.980469 112.503906 219.15625 126.683594 219.15625 144.1875 C 219.15625 161.6875 204.980469 175.867188 187.484375 175.867188 C 169.984375 175.867188 155.808594 161.6875 155.808594 144.1875 C 155.808594 126.683594 169.984375 112.503906 187.484375 112.503906 Z M 187.484375 112.503906 " fill-opacity="1" fill-rule="evenodd"/></g></svg>